<?xml version="1.0" encoding="utf-8"?>
<!-- Generator: Adobe Illustrator 19.1.0, SVG Export Plug-In . SVG Version: 6.00 Build 0)  -->
<svg version="1.1" id="Layer_1" xmlns="http://www.w3.org/2000/svg" xmlns:xlink="http://www.w3.org/1999/xlink" x="0px" y="0px"
	 viewBox="0 0 310 260" style="enable-background:new 0 0 310 260;" xml:space="preserve">
<ellipse style="fill:#E7F5FD;" cx="155" cy="235" rx="150" ry="20"/>
<g>
	<path style="fill:#E7F5FD;" d="M55,90l87-79c7.5-6.3,18.4-6.3,25.9,0l87,79v115H55V90z"/>
	<path style="fill:#169EF2;" d="M255,208H55c-1.7,0-3-1.3-3-3V90c0-0.8,0.4-1.7,1-2.2l87-79c8.7-7.4,21.2-7.4,29.9-0.1L257,87.8
		c0.6,0.6,1,1.4,1,2.2v115C258,206.7,256.7,208,255,208z M58,202h194V91.3l-86.1-78.1c-6.3-5.4-15.6-5.4-21.9,0.1l-86,78V202z"/>
</g>
<g>
	<rect x="85" y="25" style="fill:#FFFFFF;" width="140" height="150"/>
	<path style="fill:#169EF2;" d="M228,178H82V22h146V178z M88,172h134V28H88V172z"/>
</g>
<g>
	<path style="fill:#FFFFFF;" d="M55,90v135c0,5.5,4.5,10,10,10h180c5.5,0,10-4.5,10-10V90l-100,70L55,90z"/>
	<path style="fill:#169EF2;" d="M245,238H65c-7.2,0-13-5.8-13-13V90c0-1.1,0.6-2.1,1.6-2.7c1-0.5,2.2-0.4,3.1,0.2l98.3,68.8
		l98.3-68.8c0.9-0.6,2.1-0.7,3.1-0.2c1,0.5,1.6,1.5,1.6,2.7v135C258,232.2,252.2,238,245,238z M58,95.8V225c0,3.9,3.1,7,7,7h180
		c3.9,0,7-3.1,7-7V95.8l-95.3,66.7c-1,0.7-2.4,0.7-3.4,0L58,95.8z"/>
</g>
<g>
	<path style="fill:#FFFFFF;" d="M55,225v-5l85.9-70.9c7.8-7.8,20.5-7.8,28.3,0L255,220v5c0,5.5-4.5,10-10,10H65
		C59.5,235,55,230.5,55,225z"/>
	<path style="fill:#169EF2;" d="M245,238H65c-7.2,0-13-5.8-13-13v-6.4l1.1-0.9l85.8-70.8c8.9-8.8,23.4-8.8,32.3,0l86.8,71.7v6.4
		C258,232.2,252.2,238,245,238z M58,221.4v3.6c0,3.9,3.1,7,7,7h180c3.9,0,7-3.1,7-7v-3.6l-84.9-70l-0.1-0.1c-3.2-3.2-7.5-5-12-5
		s-8.8,1.8-12,5l-0.2,0.2L58,221.4z"/>
</g>
<path style="fill:#169EF2;" d="M170,70c0-8.3-6.7-15-15-15c-8.3,0-15,6.7-15,15c0,6.1,3.6,11.3,8.8,13.6L140,110h30l-8.8-26.4
	C166.4,81.3,170,76.1,170,70z"/>
</svg>
