<?xml version="1.0" encoding="UTF-8" standalone="no"?>
<svg width="27px" height="32px" viewBox="0 0 27 32" version="1.1" xmlns="http://www.w3.org/2000/svg" xmlns:xlink="http://www.w3.org/1999/xlink" xmlns:sketch="http://www.bohemiancoding.com/sketch/ns">
    <!-- Generator: Sketch 3.3.3 (12081) - http://www.bohemiancoding.com/sketch -->
    <title>Android</title>
    <desc>Created with Sketch.</desc>
    <defs></defs>
    <g id="Page-1" stroke="none" stroke-width="1" fill="none" fill-rule="evenodd" sketch:type="MSPage">
        <g id="v5-cb" sketch:type="MSArtboardGroup" transform="translate(-532.000000, -2671.000000)" fill="#FFFFFF">
            <g id="One-API-Copy" sketch:type="MSLayerGroup" transform="translate(221.500000, 2526.000000)">
                <g id="Heading" transform="translate(190.500000, 0.000000)" sketch:type="MSShapeGroup">
                    <g id="Languages" transform="translate(64.500000, 142.000000)">
                        <g id="Android" transform="translate(49.000000, 0.000000)">
                            <g id="layer1" transform="translate(6.500000, 3.500000)">
                                <g id="Group">
                                    <path d="M1.25000001,11.5 C0.553897685,11.5 0,12.3983985 0,13.5274469 L0,21.9725531 C0,23.1016015 0.553897685,24 1.25000001,24 C1.94610228,24 2.5,23.1016015 2.5,21.9725531 L2.5,13.5274469 C2.5,12.3983985 1.94610228,11.5 1.25000001,11.5 L1.25000001,11.5 L1.25000001,11.5 Z M25.0000002,11.5 C24.3038979,11.5 23.75,12.3983985 23.75,13.5274469 L23.75,21.9725531 C23.75,23.1016015 24.3038979,24 25.0000002,24 C25.6961028,24 26.25,23.1016015 26.25,21.9725531 L26.25,13.5274469 C26.25,12.3983985 25.6961028,11.5 25.0000002,11.5 L25.0000002,11.5 Z M7.30425809,0.250015411 C7.25456129,0.250552117 7.20825295,0.264092148 7.16260289,0.290812615 C7.0126935,0.378565195 6.96339647,0.560480775 7.04670314,0.719190243 L8.5276435,3.54443559 C5.67838179,5.11004911 3.75385717,8.08534255 3.75,11.5 L22.5,11.5 C22.4961476,8.08534255 20.5716183,5.11004911 17.7223555,3.54443559 L19.2032974,0.719190243 C19.2866036,0.560480775 19.2373062,0.378565195 19.0873972,0.290812615 C19.0417469,0.264092148 18.9954389,0.250515621 18.9457419,0.250015411 C18.8393538,0.248931264 18.7385105,0.305066466 18.6817471,0.413206376 L17.1814894,3.26905043 C15.9542191,2.6941734 14.5776456,2.37150011 13.125,2.37150011 C11.6723534,2.37150011 10.2957789,2.6941734 9.06850956,3.26905043 L7.56825184,0.413206376 C7.51148878,0.305066466 7.41064477,0.248937704 7.30425809,0.250015411 L7.30425809,0.250015411 L7.30425809,0.250015411 Z M3.75,12.75 L3.75,23.4631984 C3.75,24.4530866 4.76085162,25.25 6.01648341,25.25 L20.2335161,25.25 C21.4891489,25.25 22.5,24.4530866 22.5,23.4631984 L22.5,12.75 L3.75,12.75 L3.75,12.75 Z M10.0000004,6.5 C9.31609576,6.5 8.75,7.06609476 8.75,7.75000081 C8.75,8.43390524 9.31609576,9 10.0000004,9 C10.683905,9 11.25,8.43390524 11.25,7.75000081 C11.25,7.06609476 10.683905,6.5 10.0000004,6.5 L10.0000004,6.5 Z M16.2500007,6.5 C15.5660964,6.5 15,7.06609476 15,7.75000081 C15,8.43390524 15.5660964,9 16.2500007,9 C16.9339036,9 17.5,8.43390524 17.5,7.75000081 C17.5,7.06609476 16.9339036,6.5 16.2500007,6.5 L16.2500007,6.5 L16.2500007,6.5 Z" id="rect3981-7"></path>
                                    <path d="M8.74999981,19 C8.0538974,19 7.5,19.898399 7.5,21.027448 L7.5,29.4725648 C7.5,30.6016167 8.0538974,31.5 8.74999981,31.5 C9.44610224,31.5 10,30.6016167 10,29.4725648 L10,21.027448 C10,19.898399 9.44610224,19 8.74999981,19 L8.74999981,19 L8.74999981,19 Z M16.2500002,19 C15.5538979,19 15,19.898399 15,21.027448 L15,29.4725648 C15,30.6016167 15.5538979,31.5 16.2500002,31.5 C16.9461028,31.5 17.5,30.6016167 17.5,29.4725648 L17.5,21.027448 C17.5,19.898399 16.9461028,19 16.2500002,19 L16.2500002,19 L16.2500002,19 Z" id="c-4-0"></path>
                                </g>
                            </g>
                        </g>
                    </g>
                </g>
            </g>
        </g>
    </g>
</svg>
