<?xml version="1.0" encoding="UTF-8" standalone="no"?>
<svg width="28px" height="28px" viewBox="0 0 28 28" version="1.1" xmlns="http://www.w3.org/2000/svg" xmlns:xlink="http://www.w3.org/1999/xlink" xmlns:sketch="http://www.bohemiancoding.com/sketch/ns">
    <!-- Generator: Sketch 3.3.3 (12081) - http://www.bohemiancoding.com/sketch -->
    <title>Clojure</title>
    <desc>Created with Sketch.</desc>
    <defs></defs>
    <g id="Page-1" stroke="none" stroke-width="1" fill="none" fill-rule="evenodd" sketch:type="MSPage">
        <g id="v5-cb" sketch:type="MSArtboardGroup" transform="translate(-879.000000, -2674.000000)" fill="#FFFFFF">
            <g id="One-API-Copy" sketch:type="MSLayerGroup" transform="translate(221.500000, 2526.000000)">
                <g id="Heading" transform="translate(190.500000, 0.000000)" sketch:type="MSShapeGroup">
                    <g id="Languages" transform="translate(64.500000, 142.000000)">
                        <g id="Clojure" transform="translate(396.000000, 0.000000)">
                            <g id="Clojure_Programming_Language_Logo_Icon_SVG" transform="translate(6.250000, 5.000000)">
                                <path d="M10.8521021,1.38299347 C14.6987481,0.419007228 18.9576455,1.20321468 22.1750658,3.5341396 C26.1580958,6.30521258 28.4642236,11.3018229 27.9403854,16.131053 C27.7017136,18.0869221 26.3812694,19.9157064 24.51219,20.6069248 C23.2227421,21.1431615 21.8062094,21.0842685 20.4392706,21.0904678 C23.7062851,17.9505383 23.9046616,12.2658092 20.817426,8.93990165 C18.3842131,6.06344111 14.0912198,5.19554354 10.6506258,6.6337738 C8.36309579,5.28233329 5.4370411,5.24513768 3.09371765,6.488091 C5.07128426,4.03937998 7.75866711,2.10830787 10.8521021,1.38299347 L10.8521021,1.38299347 L10.8521021,1.38299347 Z" id="Shape"></path>
                                <path d="M11.9772693,7.8209337 C13.7006659,7.35908821 15.5790443,7.39628381 17.2032525,8.17739164 C19.9681263,9.43274349 21.7969104,12.5168795 21.4249544,15.554521 C21.2513748,17.631276 20.0332185,19.4569605 18.4493055,20.7464084 C17.1350606,20.1326807 16.5027353,18.7657421 15.9231036,17.5258884 C14.4042829,14.3704607 14.2400023,10.6199034 11.9772693,7.8209337 L11.9772693,7.8209337 L11.9772693,7.8209337 Z" id="Shape"></path>
                                <path d="M2.48308971,9.77680289 C3.97401376,8.28587884 6.21194965,7.793037 8.25150896,8.15259456 C6.4878171,9.83569594 5.31615536,12.1728201 5.32235464,14.640129 C5.21386744,17.7335639 6.90936735,20.7681058 9.54405643,22.367517 C12.0857565,23.960729 15.3930661,24.028921 18.0928475,22.7921669 C20.4826655,23.4988835 23.0088674,23.4337911 25.4234824,22.8789566 C23.4831114,25.4919483 20.6593446,27.460216 17.4822196,28.2320249 C13.5549831,29.2208083 9.20929593,28.3560103 5.97327781,25.9165981 C2.43969483,23.350101 0.25755235,19.0168125 0.356740644,14.6432286 C0.266851253,12.8020459 1.21843895,11.0538522 2.48308971,9.77680289 L2.48308971,9.77680289 L2.48308971,9.77680289 Z" id="Shape"></path>
                                <path d="M7.02095418,16.1930456 C6.41032624,13.4219727 7.72147151,10.4866191 9.9687063,8.82831481 C11.6859037,9.90388789 12.3802217,11.8969527 13.0993369,13.6854416 C11.9989667,16.0070676 10.5855335,18.1954094 9.81062496,20.6627182 C8.43438738,19.5220529 7.33711686,17.9815346 7.02095418,16.1930456 L7.02095418,16.1930456 L7.02095418,16.1930456 Z" id="Shape"></path>
                                <path d="M11.6797044,21.7103945 C11.521623,19.37637 12.7149823,17.2841169 13.5828798,15.2011628 C14.292696,17.4731946 14.7390434,19.9714998 16.394248,21.790985 C14.8413313,22.1970371 13.217123,22.1629411 11.6797044,21.7103945 L11.6797044,21.7103945 L11.6797044,21.7103945 Z" id="Shape"></path>
                            </g>
                        </g>
                    </g>
                </g>
            </g>
        </g>
    </g>
</svg>
