<?xml version="1.0" encoding="UTF-8" standalone="no"?>
<svg width="24px" height="28px" viewBox="0 0 24 28" version="1.1" xmlns="http://www.w3.org/2000/svg" xmlns:xlink="http://www.w3.org/1999/xlink" xmlns:sketch="http://www.bohemiancoding.com/sketch/ns">
    <!-- Generator: Sketch 3.3.3 (12081) - http://www.bohemiancoding.com/sketch -->
    <title>iOS</title>
    <desc>Created with Sketch.</desc>
    <defs></defs>
    <g id="Page-1" stroke="none" stroke-width="1" fill="none" fill-rule="evenodd" sketch:type="MSPage">
        <g id="v5-cb" sketch:type="MSArtboardGroup" transform="translate(-583.000000, -2673.000000)" fill="#FFFFFF">
            <g id="One-API-Copy" sketch:type="MSLayerGroup" transform="translate(221.500000, 2526.000000)">
                <g id="Heading" transform="translate(190.500000, 0.000000)" sketch:type="MSShapeGroup">
                    <g id="Languages" transform="translate(64.500000, 142.000000)">
                        <g id="iOS" transform="translate(98.000000, 0.000000)">
                            <g id="apple" transform="translate(8.500000, 5.000000)">
                                <path d="M20.0864869,14.3753646 C20.05259,10.8334851 23.10086,9.13273224 23.2341759,9.05357285 C21.5225599,6.64659079 18.8513486,6.31150507 17.905382,6.27192537 C15.6325461,6.05205682 13.4683897,7.55826542 12.319741,7.55826542 C11.1672482,7.55826542 9.38801327,6.30798315 7.5072625,6.34387321 C5.02597844,6.37640906 2.74755127,7.72748539 1.47117777,9.84986262 C-1.10026491,14.1340291 0.810538732,20.4828802 3.32187566,23.9561661 C4.54548191,25.656919 6.00391991,27.5666392 7.92014006,27.4982134 C9.77083796,27.4296197 10.4690431,26.3524147 12.7027404,26.3524147 C14.932419,26.3524147 15.5631799,27.4982134 17.5188881,27.4693671 C19.5046492,27.4296197 20.7658215,25.7290345 21.9784201,24.0282817 C23.3823435,22.0538251 23.9662779,20.144105 24,20.0431432 C23.956668,20.0287201 20.1240529,18.6164294 20.0864869,14.3753646" id="Fill-1"></path>
                                <path d="M16.1113429,4.32025711 C17.1908679,3.17747524 17.9170165,1.58516997 17.716776,0 C16.1669446,0.0522173637 14.287751,0.909263226 13.1784855,2.04863961 C12.1783916,3.06590521 11.3013238,4.68950846 11.5394325,6.23997497 C13.2658597,6.35495047 15.0379137,5.46644446 16.1113429,4.32025711" id="Fill-4"></path>
                            </g>
                        </g>
                    </g>
                </g>
            </g>
        </g>
    </g>
</svg>
