<?xml version="1.0" encoding="UTF-8" standalone="no"?>
<svg width="26px" height="30px" viewBox="0 0 26 30" version="1.1" xmlns="http://www.w3.org/2000/svg" xmlns:xlink="http://www.w3.org/1999/xlink" xmlns:sketch="http://www.bohemiancoding.com/sketch/ns">
    <!-- Generator: Sketch 3.3.3 (12081) - http://www.bohemiancoding.com/sketch -->
    <title>Java</title>
    <desc>Created with Sketch.</desc>
    <defs></defs>
    <g id="Page-1" stroke="none" stroke-width="1" fill="none" fill-rule="evenodd" sketch:type="MSPage">
        <g id="v5-cb" sketch:type="MSArtboardGroup" transform="translate(-782.000000, -2671.000000)" fill="#FFFFFF">
            <g id="One-API-Copy" sketch:type="MSLayerGroup" transform="translate(221.500000, 2526.000000)">
                <g id="Heading" transform="translate(190.500000, 0.000000)" sketch:type="MSShapeGroup">
                    <g id="Languages" transform="translate(64.500000, 142.000000)">
                        <g id="Java" transform="translate(297.000000, 0.000000)">
                            <g id="Fill-177" transform="translate(8.500000, 3.750000)">
                                <path d="M19.5743244,21.25 C19.9868508,19.9490234 20.3281673,18.5279217 20.5172418,17.0297589 C20.895391,16.6399192 21.5436468,16.3362069 22.1550699,16.3362069 C22.967845,16.3362069 23.6283784,16.945898 23.6283784,17.6961127 C23.6283784,19.6430446 21.4798034,20.9372216 19.5743244,21.25 L19.5743244,21.25 L19.5743244,21.25 Z M25.25,18.0253232 C25.25,16.2471444 23.7884385,14.8006465 21.9917418,14.8006465 C21.5262763,14.8006465 21.0468469,14.8996902 20.5906908,15.0770474 C20.593018,14.9849137 20.5953454,14.8927801 20.5953454,14.8006465 C20.5953454,14.2916082 20.1787538,13.8793104 19.6644144,13.8793104 L1.0457958,13.8793104 C0.531456456,13.8793104 0.114864865,14.2916082 0.114864865,14.8006465 C0.114864865,20.8423087 2.80525525,26.153812 3.96193694,28.1554149 C4.12717718,28.4433324 4.43438439,28.6206896 4.76951953,28.6206896 L15.9406908,28.6206896 C16.2758259,28.6206896 16.583033,28.4433324 16.7482733,28.1554149 C17.2812313,27.236382 18.1353604,25.6171336 18.9033784,23.5487339 C21.9405405,23.4681169 25.25,21.2223599 25.25,18.0253232 L25.25,18.0253232 L25.25,18.0253232 Z" id="Shape"></path>
                                <path d="M11.6383084,10.4067537 C13.1519233,11.7127233 11.2406209,12.887931 11.2406209,12.887931 C11.2406209,12.887931 15.0839475,11.4010628 13.318881,9.5391498 C11.6703636,7.80280106 10.4061705,6.94007774 17.25,3.96551724 C17.25,3.96551724 6.50744501,5.97619311 11.6383084,10.4067537" id="Shape"></path>
                                <path d="M12.5261895,0 C12.5261895,0 15.3472967,2.44176715 9.85049197,6.19651521 C5.44261264,9.20846915 8.8453582,10.9258046 9.84866246,12.887931 C7.27571026,10.8793286 5.38750774,9.11114799 6.6542617,7.4654895 C8.51355794,5.04980975 13.6644386,3.87859986 12.5261895,0" id="Shape"></path>
                            </g>
                        </g>
                    </g>
                </g>
            </g>
        </g>
    </g>
</svg>
