<?xml version="1.0" encoding="UTF-8" standalone="no"?>
<svg width="27px" height="19px" viewBox="0 0 27 19" version="1.1" xmlns="http://www.w3.org/2000/svg" xmlns:xlink="http://www.w3.org/1999/xlink" xmlns:sketch="http://www.bohemiancoding.com/sketch/ns">
    <!-- Generator: Sketch 3.3.3 (12081) - http://www.bohemiancoding.com/sketch -->
    <title>JS</title>
    <desc>Created with Sketch.</desc>
    <defs></defs>
    <g id="Page-1" stroke="none" stroke-width="1" fill="none" fill-rule="evenodd" sketch:type="MSPage">
        <g id="v5-cb" sketch:type="MSArtboardGroup" transform="translate(-482.000000, -2679.000000)" fill="#FFFFFF">
            <g id="One-API-Copy" sketch:type="MSLayerGroup" transform="translate(221.500000, 2526.000000)">
                <g id="Heading" transform="translate(190.500000, 0.000000)" sketch:type="MSShapeGroup">
                    <g id="Languages" transform="translate(64.500000, 142.000000)">
                        <g id="JS">
                            <path d="M6.14690054,26.1027529 L9.13009663,24.2973663 C9.70562063,25.3177786 10.2291689,26.1811033 11.484942,26.1811033 C12.688662,26.1811033 13.447571,25.710227 13.447571,23.8786978 L13.447571,11.4230615 L17.1108615,11.4230615 L17.1108615,23.9308284 C17.1108615,27.7250639 14.8868065,29.4521 11.6419524,29.4521 C8.71142825,29.4521 7.01037995,27.9343594 6.14690054,26.1027529" id="Fill-3"></path>
                            <path d="M19.063513,25.687565 L22.0463224,23.9605288 C22.8315286,25.2428313 23.8520184,26.1848159 25.6574823,26.1848159 C27.1753776,26.1848159 28.1432728,25.4259069 28.1432728,24.3791973 C28.1432728,23.123192 27.149003,22.6783036 25.474252,21.9458466 L24.5586421,21.5530888 C21.9156093,20.428106 20.1623531,19.0150905 20.1623531,16.0320491 C20.1623531,13.2845233 22.2556953,11.1910265 25.526692,11.1910265 C27.8555494,11.1910265 29.530223,12.002298 30.7337884,14.12186 L27.8815374,15.9534666 C27.2534961,14.8284065 26.5733243,14.3835955 25.526692,14.3835955 C24.4538396,14.3835955 23.7734359,15.0639219 23.7734359,15.9534666 C23.7734359,17.0525389 24.4538396,17.4974271 26.0237108,18.177831 L26.9394754,18.5702795 C30.0533845,19.9048671 31.8066406,21.2654428 31.8066406,24.3268346 C31.8066406,27.6240514 29.216125,29.429438 25.7359875,29.429438 C22.3342778,29.429438 20.1362106,27.8072043 19.063513,25.687565" id="Fill-4"></path>
                        </g>
                    </g>
                </g>
            </g>
        </g>
    </g>
</svg>
