<?xml version="1.0" encoding="UTF-8" standalone="no"?>
<svg width="22px" height="22px" viewBox="0 0 22 22" version="1.1" xmlns="http://www.w3.org/2000/svg" xmlns:xlink="http://www.w3.org/1999/xlink" xmlns:sketch="http://www.bohemiancoding.com/sketch/ns">
    <!-- Generator: Sketch 3.3.3 (12081) - http://www.bohemiancoding.com/sketch -->
    <title>.net</title>
    <desc>Created with Sketch.</desc>
    <defs></defs>
    <g id="Page-1" stroke="none" stroke-width="1" fill="none" fill-rule="evenodd" sketch:type="MSPage">
        <g id="v5-cb" sketch:type="MSArtboardGroup" transform="translate(-732.000000, -2678.000000)" fill="#FFFFFF">
            <g id="One-API-Copy" sketch:type="MSLayerGroup" transform="translate(221.500000, 2526.000000)">
                <g id="Heading" transform="translate(190.500000, 0.000000)" sketch:type="MSShapeGroup">
                    <g id="Languages" transform="translate(64.500000, 142.000000)">
                        <g id=".net" transform="translate(247.000000, 0.000000)">
                            <g id="Rectangle-28" transform="translate(9.000000, 10.000000)">
                                <path d="M0,11.25 L0,21.25 L10,21.25 L10,11.25 L0,11.25 L0,11.25 Z M0,10 L0,0 L10,0 L10,10 L0,10 L0,10 Z M21.25,11.25 L21.25,21.25 L11.25,21.25 L11.25,11.25 L21.25,11.25 L21.25,11.25 Z M21.25,10 L21.25,0 L11.25,0 L11.25,10 L21.25,10 L21.25,10 Z" id="Shape"></path>
                            </g>
                        </g>
                    </g>
                </g>
            </g>
        </g>
    </g>
</svg>
