<?xml version="1.0" encoding="UTF-8" standalone="no"?>
<svg width="30px" height="15px" viewBox="0 0 30 15" version="1.1" xmlns="http://www.w3.org/2000/svg" xmlns:xlink="http://www.w3.org/1999/xlink" xmlns:sketch="http://www.bohemiancoding.com/sketch/ns">
    <!-- Generator: Sketch 3.3.3 (12081) - http://www.bohemiancoding.com/sketch -->
    <title>Php</title>
    <desc>Created with Sketch.</desc>
    <defs></defs>
    <g id="Page-1" stroke="none" stroke-width="1" fill="none" fill-rule="evenodd" sketch:type="MSPage">
        <g id="v5-cb" sketch:type="MSArtboardGroup" transform="translate(-829.000000, -2681.000000)" fill="#FFFFFF">
            <g id="One-API-Copy" sketch:type="MSLayerGroup" transform="translate(221.500000, 2526.000000)">
                <g id="Heading" transform="translate(190.500000, 0.000000)" sketch:type="MSShapeGroup">
                    <g id="Languages" transform="translate(64.500000, 142.000000)">
                        <g id="Php" transform="translate(347.000000, 0.000000)">
                            <g id="php-logo-flat" transform="translate(6.000000, 13.500000)">
                                <g id="Page-1">
                                    <path d="M29.0907846,6.96972641 C28.9870027,7.48708696 28.8112794,7.9602498 28.5639901,8.38863336 C28.3164005,8.81752578 27.9931146,9.20963521 27.5936069,9.56510706 C27.1175017,9.99639836 26.5886046,10.303747 26.0066149,10.4868623 C25.4246252,10.670341 24.6833582,10.7617896 23.7822129,10.7617896 L21.7399925,10.7617896 L21.1744487,13.5786678 L18.7901685,13.5786678 L20.917397,2.98349855 L25.502349,2.98349855 C26.8817021,2.98349855 27.8878307,3.33395454 28.5202845,4.03472113 C29.1528135,4.7355604 29.3431052,5.71379858 29.0907846,6.96972641 L29.0907846,6.96972641 L29.0907846,6.96972641 Z M15.9434506,10.7617896 L16.8844716,6.07385013 C16.9915576,5.54056965 16.9522827,5.17681074 16.7662714,4.98286413 C16.580335,4.78891753 16.1845821,4.69179884 15.5793879,4.69179884 L13.6888602,4.69179884 L12.4702866,10.7617896 L10.1047802,10.7617896 L12.2320838,0.166620407 L14.5975901,0.166620407 L14.0320464,2.98349855 L16.1394497,2.98349855 C17.4653347,2.98349855 18.3799221,3.20754031 18.883362,3.65511499 C19.3867267,4.10290775 19.5375184,4.82839016 19.3362625,5.83134418 L18.3465046,10.7617896 L15.9434506,10.7617896 L15.9434506,10.7617896 Z M8.98375552,9.56510706 C8.50772554,9.99639836 7.97882836,10.303747 7.39683871,10.4868623 C6.81484905,10.670341 6.07350689,10.7617896 5.17236161,10.7617896 L3.13014115,10.7617896 L2.5645974,13.5786678 L0.180317209,13.5786678 L2.3076208,2.98349855 L6.89257284,2.98349855 C8.27185076,2.98349855 9.27797945,3.33395454 9.91043324,4.03472113 C10.542887,4.7355604 10.733254,5.71379858 10.4810084,6.96972641 C10.3771514,7.48708696 10.2014281,7.9602498 9.95413879,8.38863336 C9.70654912,8.81752578 9.38333836,9.20963521 8.98375552,9.56510706 L8.98375552,9.56510706 Z M5.98962527,4.65545203 L4.3559991,4.65545203 L3.46574266,9.08983611 L4.91598579,9.08983611 C5.8772825,9.08983611 6.59331751,8.91464446 7.06386554,8.5638977 C7.53441355,8.21322364 7.85176687,7.62796723 8.01660136,6.80791039 C8.17445197,6.020493 8.10258565,5.4647502 7.80100236,5.14104546 C7.49919379,4.81734074 6.89550156,4.65545203 5.98962527,4.65545203 L5.98962527,4.65545203 Z M24.5994766,4.65545203 L22.9658504,4.65545203 L22.075594,9.08983611 L23.5259122,9.08983611 C24.4871339,9.08983611 25.2031689,8.91464446 25.6736417,8.5638977 C26.1442649,8.21322364 26.4616182,7.62796723 26.6264526,6.80791039 C26.7842282,6.020493 26.712437,5.4647502 26.4108536,5.14104546 C26.10897,4.81734074 25.5052777,4.65545203 24.5994766,4.65545203 L24.5994766,4.65545203 Z" id="Fill-3"></path>
                                </g>
                            </g>
                        </g>
                    </g>
                </g>
            </g>
        </g>
    </g>
</svg>
