<?xml version="1.0" encoding="UTF-8" standalone="no"?>
<svg width="29px" height="29px" viewBox="0 0 29 29" version="1.1" xmlns="http://www.w3.org/2000/svg" xmlns:xlink="http://www.w3.org/1999/xlink" xmlns:sketch="http://www.bohemiancoding.com/sketch/ns">
    <!-- Generator: Sketch 3.3.3 (12081) - http://www.bohemiancoding.com/sketch -->
    <title>Python</title>
    <desc>Created with Sketch.</desc>
    <defs></defs>
    <g id="Page-1" stroke="none" stroke-width="1" fill="none" fill-rule="evenodd" sketch:type="MSPage">
        <g id="v5-cb" sketch:type="MSArtboardGroup" transform="translate(-627.000000, -2673.000000)" fill="#FFFFFF">
            <g id="One-API-Copy" sketch:type="MSLayerGroup" transform="translate(221.500000, 2526.000000)">
                <g id="Heading" transform="translate(190.500000, 0.000000)" sketch:type="MSShapeGroup">
                    <g id="Languages" transform="translate(64.500000, 142.000000)">
                        <g id="Python" transform="translate(147.000000, 0.000000)">
                            <g id="path1948-+-path1950-copy" transform="translate(4.000000, 5.000000)">
                                <path d="M13.3586674,0.000233244297 C12.2645867,0.00563719092 11.2197641,0.104823866 10.3004278,0.277746784 C7.59217835,0.786342847 7.10046523,1.85087801 7.10046499,3.8140622 L7.10046499,6.40683156 L13.5003906,6.40683156 L13.5003906,7.27108801 L7.10046499,7.27108801 L4.69862809,7.27108801 C2.83863153,7.27108801 1.20996527,8.4594719 0.700539303,10.7201849 C0.112922894,13.3114866 0.0868589125,14.9285011 0.700539303,17.6342365 C1.15546888,19.6482812 2.24190234,21.0833329 4.10189843,21.0833334 L6.30233906,21.0833334 L6.30233906,17.9751817 C6.30233906,15.7297256 8.13003705,13.7490474 10.3004278,13.7490469 L16.6928944,13.7490469 C18.4723305,13.7490469 19.8928579,12.191631 19.8928571,10.2920211 L19.8928571,3.8140622 C19.8928571,1.97039824 18.4296808,0.585446845 16.6928944,0.277746784 C15.5934828,0.0832081307 14.452748,-0.00517070233 13.3586674,0.000233244297 L13.3586674,0.000233244297 L13.3586674,0.000233244297 Z M10.0714286,2.875 C10.6120677,2.875 11.0535714,3.52171386 11.0535714,4.31689602 C11.053571,5.10925967 10.6120677,5.75 10.0714286,5.75 C9.52885118,5.74999971 9.08928571,5.10925939 9.08928571,4.31689602 C9.08928553,3.52171414 9.52885118,2.875 10.0714286,2.875 L10.0714286,2.875 L10.0714286,2.875 Z" id="path1948"></path>
                                <path d="M21.6700498,7.66666666 L21.6700498,10.6646119 C21.6700498,12.9888784 19.8058674,14.9451424 17.6800838,14.9451426 L11.3006045,14.9451426 C9.55315824,14.9451426 8.1071431,16.526039 8.10714286,18.3758621 L8.10714286,24.804526 C8.10714286,26.6341607 9.61227429,27.7103315 11.3006045,28.2352455 C13.3223455,28.8636299 15.2610893,28.9771949 17.6800838,28.2352455 C19.2880174,27.743138 20.8735461,26.7527692 20.8735454,24.804526 L20.8735454,22.2314871 L14.4940661,22.2314871 L14.4940661,21.3738072 L20.8735454,21.3738072 L24.0670079,21.3738072 C25.9232259,21.3738072 26.6149288,20.0051937 27.2604671,17.9509565 C27.927287,15.8361511 27.8989141,13.8024232 27.2604671,11.0895175 C26.801733,9.13622549 25.9255865,7.66666666 24.0670079,7.66666666 L21.6700498,7.66666666 L21.6700498,7.66666666 Z M17.9285714,23.9583334 C18.4711493,23.9583341 18.9107143,24.5990747 18.9107143,25.3914369 C18.9107139,26.1866181 18.4711486,26.8333334 17.9285714,26.8333334 C17.3879316,26.8333334 16.9464286,26.1866181 16.9464286,25.3914369 C16.946429,24.5990747 17.3879311,23.9583334 17.9285714,23.9583334 L17.9285714,23.9583334 L17.9285714,23.9583334 Z" id="path1950"></path>
                            </g>
                        </g>
                    </g>
                </g>
            </g>
        </g>
    </g>
</svg>
