<?xml version="1.0" encoding="UTF-8" standalone="no"?>
<svg width="26px" height="26px" viewBox="0 0 26 26" version="1.1" xmlns="http://www.w3.org/2000/svg" xmlns:xlink="http://www.w3.org/1999/xlink" xmlns:sketch="http://www.bohemiancoding.com/sketch/ns">
    <!-- Generator: Sketch 3.3.3 (12081) - http://www.bohemiancoding.com/sketch -->
    <title>Ruby</title>
    <desc>Created with Sketch.</desc>
    <defs></defs>
    <g id="Page-1" stroke="none" stroke-width="1" fill="none" fill-rule="evenodd" sketch:type="MSPage">
        <g id="v5-cb" sketch:type="MSArtboardGroup" transform="translate(-678.000000, -2673.000000)" fill="#FFFFFF">
            <g id="One-API-Copy" sketch:type="MSLayerGroup" transform="translate(221.500000, 2526.000000)">
                <g id="Heading" transform="translate(190.500000, 0.000000)" sketch:type="MSShapeGroup">
                    <g id="Languages" transform="translate(64.500000, 142.000000)">
                        <g id="Ruby" transform="translate(196.000000, 0.000000)">
                            <g id="Group" transform="translate(20.195206, 21.751898) rotate(-45.000000) translate(-20.195206, -21.751898) translate(4.695206, 8.751898)">
                                <path d="M17.2776322,0.893677661 L22.7520072,7.62388677 L12.5806451,7.9125671 L17.2776322,0.893677661 Z" id="Triangle-1"></path>
                                <path d="M8.3817728,2.23971946 L14.8825931,1.25 L10.4346634,7.62388677 L8.3817728,2.23971946 L8.3817728,2.23971946 Z" id="Triangle-1"></path>
                                <path d="M26.1290323,1.25 C26.1290323,1.25 25.3603259,4.714067 24.8048983,6.95086604 L18.6462261,0.893677661 L26.1290323,1.25 L26.1290323,1.25 Z" id="Triangle-1-copy"></path>
                                <path d="M0.170210188,9.64294969 L6.00553559,2.48056969 L8.72392141,7.9603974 L0.170210188,9.64294969 L0.170210188,9.64294969 Z" id="Triangle-1-copy"></path>
                                <path d="M26.1734919,8.29690778 L27.8120273,2.48056969 L30.2792733,7.62388659 L26.1734919,8.29690778 L26.1734919,8.29690778 Z" id="Triangle-1-copy"></path>
                                <path d="M17.4193551,25.4589407 L11.6129035,9.8161575 L23.2258068,9.8161575 L17.4193551,25.4589407 L17.4193551,25.4589407 Z" id="Triangle-2"></path>
                                <path d="M30.0172589,9.7823367 L19.4106567,24.2522865 L25.3481425,10.2920553 L30.0172589,9.7823367 L30.0172589,9.7823367 Z" id="Triangle-2-copy"></path>
                                <path d="M8.69590685,9.8161577 L14.8825936,24.1128988 L0.854507078,10.3159704 L8.69590685,9.8161577 L8.69590685,9.8161577 Z" id="Triangle-2-copy"></path>
                            </g>
                        </g>
                    </g>
                </g>
            </g>
        </g>
    </g>
</svg>
